HIERARCHY
ROOT Hips
{
	OFFSET 56.877701 -32.693596 43.373703
	CHANNELS 6 Xposition Yposition Zposition Zrotation Xrotation Yrotation
	JOINT Chest
	{
		OFFSET -0.779999 1.005800 5.403099
		CHANNELS 6 Xposition Yposition Zposition Zrotation Xrotation Yrotation
		JOINT Chest2
		{
			OFFSET 0.000000 0.000000 4.236801
			CHANNELS 6 Xposition Yposition Zposition Zrotation Xrotation Yrotation
			JOINT Neck
			{
				OFFSET 0.000000 0.000000 9.874401
				CHANNELS 6 Xposition Yposition Zposition Zrotation Xrotation Yrotation
				JOINT Head
				{
					OFFSET 0.000000 0.000002 2.173893
					CHANNELS 6 Xposition Yposition Zposition Zrotation Xrotation Yrotation
					End Site
					{
						OFFSET 0.000000 0.000000 6.508102
					}
				}
			}
			JOINT LeftCollar
			{
				OFFSET 2.681599 -0.377600 5.432499
				CHANNELS 6 Xposition Yposition Zposition Zrotation Xrotation Yrotation
				JOINT LeftShoulder
				{
					OFFSET 5.161499 0.000000 0.000000
					CHANNELS 6 Xposition Yposition Zposition Zrotation Xrotation Yrotation
					JOINT LeftElbow
					{
						OFFSET 0.000000 0.000000 -10.869099
						CHANNELS 6 Xposition Yposition Zposition Zrotation Xrotation Yrotation
						JOINT LeftWrist
						{
							OFFSET 0.000000 0.000000 -13.344799
							CHANNELS 6 Xposition Yposition Zposition Zrotation Xrotation Yrotation
							End Site
							{
								OFFSET 0.000000 0.000000 -2.173901
							}
						}
					}
				}
			}
			JOINT RightCollar
			{
				OFFSET -2.381901 -1.419600 6.136600
				CHANNELS 6 Xposition Yposition Zposition Zrotation Xrotation Yrotation
				JOINT RightShoulder
				{
					OFFSET -4.550499 0.000000 0.000000
					CHANNELS 6 Xposition Yposition Zposition Zrotation Xrotation Yrotation
					JOINT RightElbow
					{
						OFFSET 0.000000 0.000000 -11.106499
						CHANNELS 6 Xposition Yposition Zposition Zrotation Xrotation Yrotation
						JOINT RightWrist
						{
							OFFSET 0.000000 0.000000 -12.874298
							CHANNELS 6 Xposition Yposition Zposition Zrotation Xrotation Yrotation
							End Site
							{
								OFFSET 0.000000 0.000000 -2.173901
							}
						}
					}
				}
			}
		}
	}
	JOINT LeftHip
	{
		OFFSET 2.431900 0.469601 -2.489399
		CHANNELS 6 Xposition Yposition Zposition Zrotation Xrotation Yrotation
		JOINT LeftKnee
		{
			OFFSET 0.000000 -0.000004 -18.200201
			CHANNELS 6 Xposition Yposition Zposition Zrotation Xrotation Yrotation
			JOINT LeftAnkle
			{
				OFFSET 0.000000 0.000000 -16.279900
				CHANNELS 6 Xposition Yposition Zposition Zrotation Xrotation Yrotation
				End Site
				{
					OFFSET 0.000000 -8.394100 0.000000
				}
			}
		}
	}
	JOINT RightHip
	{
		OFFSET -1.987999 -0.073502 -2.713001
		CHANNELS 6 Xposition Yposition Zposition Zrotation Xrotation Yrotation
		JOINT RightKnee
		{
			OFFSET 0.000000 -0.000004 -19.547802
			CHANNELS 6 Xposition Yposition Zposition Zrotation Xrotation Yrotation
			JOINT RightAnkle
			{
				OFFSET 0.000000 0.000000 -14.881199
				CHANNELS 6 Xposition Yposition Zposition Zrotation Xrotation Yrotation
				End Site
				{
					OFFSET 0.000000 -7.922699 0.000000
				}
			}
		}
	}
}
MOTION
Frames: 5
Frame Time: 0.041667
57.443001 -35.660797 43.329105 4709.093048 16.349642 3.503913 -0.780000 1.005795 5.403095 5.912542 -9.670868 -12.782079 0.000003 -0.000001 4.236797 -1.047666 1.101100 0.081235 -0.000009 -0.000008 9.874401 -28.766738 13.595961 10.259254 0.000006 0.000001 2.173893 -4.367944 3.572076 -0.581898 2.681600 -0.377605 5.432502 0.563326 1.611734 -36.921571 5.161497 0.000003 -0.000001 144.807360 -161.227613 100.523890 -0.000006 -0.000005 -10.869096 112.045217 -52.073717 160.316288 0.000001 0.000001 -13.344802 -45.235107 -12.517809 3.814805 -2.381902 -1.419604 6.136597 -8.900669 -14.312979 -13.233817 -4.550508 -0.000002 0.000008 -1285.415046 -525.969208 -488.507861 0.000001 -0.000002 -11.106516 687.928621 -19.172604 712.698275 -0.000005 0.000000 -12.874299 -383.740873 -16.519311 49.928270 2.431895 0.469603 -2.489392 37.930298 -42.200723 16.525825 0.000006 -0.000003 -18.200203 -54.113714 50.506804 23.650987 -0.000008 0.000007 -16.279900 16.051397 24.219518 -10.954718 -1.988008 -0.073499 -2.712990 -52.672524 -31.470551 -0.913312 -0.000007 -0.000006 -19.547806 -1799.357930 35.749463 9.963728 0.000002 0.000003 -14.881197 2196.769154 26.883667 -341.384220
57.998199 -35.623291 43.481503 4708.740282 16.768724 4.121446 -0.779996 1.005795 5.403094 7.642541 -10.457715 -13.488163 0.000003 -0.000007 4.236805 -1.737056 1.003966 0.115371 -0.000003 0.000002 9.874404 -30.162559 12.777877 10.560686 0.000010 0.000000 2.173892 -4.554059 3.687038 -0.645406 2.681594 -0.377599 5.432508 0.786985 0.972874 -36.252937 5.161497 -0.000003 -0.000003 144.687463 -160.365451 96.302976 0.000006 -0.000001 -10.869102 115.204951 -50.564522 162.648715 -0.000000 0.000003 -13.344796 -43.367907 -13.051289 3.366564 -2.381894 -1.419599 6.136593 -8.133649 -13.618855 -15.002920 -4.550503 -0.000006 -0.000013 -1279.301644 -528.651888 -489.895482 0.000005 -0.000004 -11.106504 684.336324 -15.475136 714.711869 -0.000006 0.000002 -12.874301 -390.872711 -15.833427 44.151569 2.431906 0.469603 -2.489397 37.429737 -42.095733 16.515066 0.000007 -0.000010 -18.200199 -54.690096 50.283805 23.876784 -0.000001 -0.000003 -16.279907 17.036385 23.978334 -10.573047 -1.987999 -0.073506 -2.713001 -60.330228 -32.870419 -3.409916 -0.000009 -0.000001 -19.547804 -1793.717833 35.945445 9.355404 0.000002 -0.000006 -14.881197 2199.761105 27.853136 -340.868459
58.540298 -35.578796 43.599903 4708.589472 17.473219 4.821522 -0.779999 1.005800 5.403102 8.810777 -11.615876 -14.486012 0.000008 0.000001 4.236804 -2.270038 0.953945 0.111260 -0.000006 -0.000002 9.874401 -32.395942 11.694489 11.935990 0.000010 0.000002 2.173890 -3.663389 3.752438 -1.276610 2.681595 -0.377598 5.432511 1.826691 0.730394 -35.402032 5.161507 0.000000 -0.000006 143.798595 -158.960345 91.623422 0.000008 -0.000005 -10.869095 117.254322 -49.063967 164.119064 0.000004 0.000002 -13.344801 -41.508142 -13.138019 3.747943 -2.381898 -1.419597 6.136599 -6.691514 -12.514776 -16.118137 -4.550499 -0.000008 -0.000002 -1279.091821 -524.434219 -492.579036 0.000005 -0.000002 -11.106501 688.023970 -11.980961 715.981519 -0.000004 0.000000 -12.874296 -396.432348 -14.829177 40.612267 2.431902 0.469597 -2.489386 37.316438 -42.295089 17.001128 -0.000003 0.000002 -18.200199 -55.344500 50.222948 23.971129 -0.000007 0.000002 -16.279903 18.243031 23.761555 -11.013409 -1.987993 -0.073504 -2.712992 -79.872608 -33.923299 -13.240784 0.000002 -0.000004 -19.547798 -1782.066514 38.485138 10.018590 -0.000000 0.000001 -14.881201 2205.032918 29.374758 -340.958973
59.037300 -35.539898 43.700405 4708.776127 17.929585 5.329560 -0.779994 1.005803 5.403100 9.464632 -12.354629 -15.298789 0.000007 0.000003 4.236791 -2.519175 0.914441 0.112490 0.000002 -0.000002 9.874397 -33.348201 10.733481 12.126260 0.000010 0.000000 2.173892 -4.089888 3.836091 -1.091457 2.681605 -0.377610 5.432493 1.859127 1.033022 -34.685835 5.161494 -0.000006 -0.000008 143.910952 -157.865575 86.927251 0.000008 -0.000004 -10.869093 118.951119 -47.504673 165.157184 0.000003 0.000007 -13.344795 -39.964468 -13.509686 4.047080 -2.381896 -1.419607 6.136596 -4.968721 -11.322073 -17.009340 -4.550505 -0.000009 0.000005 -1274.970539 -524.440065 -494.749506 0.000000 -0.000003 -11.106506 684.511505 -9.083533 717.264119 -0.000004 0.000004 -12.874299 -400.839596 -13.438467 34.130110 2.431903 0.469597 -2.489390 36.930085 -42.281750 17.502881 -0.000005 -0.000011 -18.200199 -56.090408 50.275527 24.048743 -0.000001 -0.000001 -16.279903 19.496188 23.580564 -11.565666 -1.987989 -0.073500 -2.712996 -115.919703 -27.207036 -31.648293 -0.000010 -0.000006 -19.547800 -1761.213127 43.124582 11.574532 0.000000 -0.000003 -14.881201 2214.481747 33.579027 -341.067764
59.506802 -35.509499 43.770401 4708.950543 18.170340 5.835124 -0.780005 1.005803 5.403094 9.917366 -12.829293 -16.153192 0.000011 0.000001 4.236790 -2.486268 0.898157 0.119663 0.000000 -0.000002 9.874411 -34.299622 9.808914 12.316609 0.000013 0.000003 2.173884 -4.590299 4.043757 -0.925423 2.681593 -0.377601 5.432502 1.896177 0.884473 -34.108674 5.161486 0.000002 0.000008 143.452988 -157.051949 82.737408 0.000006 -0.000001 -10.869101 120.220017 -46.275727 165.918750 0.000003 0.000014 -13.344791 -38.817717 -13.690391 4.256328 -2.381898 -1.419601 6.136602 -2.343901 -10.053489 -17.231461 -4.550501 0.000000 -0.000003 -1273.472706 -522.569468 -497.675942 -0.000004 -0.000005 -11.106504 680.756376 -6.937183 717.793268 0.000004 -0.000002 -12.874296 -401.540947 -12.895210 29.886835 2.431900 0.469604 -2.489401 36.686906 -42.097652 17.958213 -0.000004 -0.000011 -18.200203 -57.746203 50.246328 24.616738 0.000005 0.000001 -16.279896 20.966463 23.259431 -11.846486 -1.987997 -0.073502 -2.713004 -145.565565 -12.857233 -42.762872 -0.000007 -0.000001 -19.547806 -1726.117102 48.173403 4.391480 -0.000007 -0.000009 -14.881199 2211.292868 36.372892 -339.662138
